# xmcd
#
# Track frame offsets: 
#        150
#        15409
#        26785
#        34692
#        45255
#        55786
#        66916
#        75943
#        88332
#        100766
#        111073
#        123502
#        132811
#        145653
#        156671
#        165555
#
# Disc length: 2341 seconds
#
# Revision: 1
# Processed by: cddbd v1.5.2PL0 Copyright (c) Steve Scherf et al.
# Submitted via: ExactAudioCopy v1.1
#
DISCID=c7092310
DTITLE=Chet Atkins_1955 - Chet Atkins_Guitar Giant_CD3
DYEAR=2007
DGENRE=Instrumental
TTITLE0=Tenderly
TTITLE1=Intermezzo
TTITLE2=Minute Waltz
TTITLE3=Arkansas Traveler
TTITLE4=Tip-Toe Through The Tulips With Me
TTITLE5=Minuet From French Harpsichord Suite, Prelude From Six Short P
TTITLE5=reludes
TTITLE6=Schön Rosmarie
TTITLE7=Ochi Chornya (Dark Eyes)
TTITLE8=La Golodrina (The Swallow)
TTITLE9=Little Rock Getaway
TTITLE10=Londonderry Air
TTITLE11=Jingle Bells
TTITLE12=Christmas Carols
TTITLE13=Cecilia
TTITLE14=The Poor People Of Paris (Jean's Song)
TTITLE15=Honey
EXTD=
EXTT0=
EXTT1=
EXTT2=
EXTT3=
EXTT4=
EXTT5=
EXTT6=
EXTT7=
EXTT8=
EXTT9=
EXTT10=
EXTT11=
EXTT12=
EXTT13=
EXTT14=
EXTT15=
PLAYORDER=
